<svg xmlns="http://www.w3.org/2000/svg" viewBox="0 0 364.37 371.08"><defs><style>.cls-1{fill:#ceff88;}.cls-2{fill:#fff;stroke:#444;stroke-miterlimit:10;stroke-width:8px;}</style></defs><g id="Layer_2" data-name="Layer 2"><g id="Layer_3" data-name="Layer 3"><path class="cls-1" d="M20,133.16a8.84,8.84,0,0,1,1.27-5.62L63.09,63.46a19.26,19.26,0,0,1,13.51-8.8,20.81,20.81,0,0,1,16.76,4.92,20.41,20.41,0,0,1,7.17,15.88A19,19,0,0,1,93.32,90L35,139.53a9.18,9.18,0,0,1-11,.33h0A9.35,9.35,0,0,1,20,133.16ZM95.33,73.42a15.36,15.36,0,0,0-5.32-10,15.69,15.69,0,0,0-12.64-3.73,14,14,0,0,0-10,6.49L25.58,130.29A4,4,0,0,0,27,135.64h0a4.14,4.14,0,0,0,4.85-.06L90.07,86.06a14.18,14.18,0,0,0,5.26-12.64Z"/><path class="cls-1" d="M85.26,57.41c22.28-36.29,47.1-37.55,59.9-35.07a4.59,4.59,0,0,1,3.76,4.21,5,5,0,0,1-3.28,5.17C130.85,37.26,109,56.78,97.25,67.92l-3.52-3.71c11.83-11.24,33.85-30.86,49.46-37-11.78-1.95-33.49.21-53.57,32.91Z"/><path class="cls-1" d="M83.81,57.18C90.66,41.31,92.18,34.66,95,22.58l.24-1a7.68,7.68,0,0,1,7.11-6.07,6.93,6.93,0,0,1,7,4.78,23.58,23.58,0,0,0,2,4.46C113.25,28,112.76,29.24,110,36L105.3,34c2.28-5.61,2.28-5.61,1.61-6.79a28.81,28.81,0,0,1-2.4-5.33,1.83,1.83,0,0,0-1.94-1.33,2.6,2.6,0,0,0-2.4,2.1l-.24,1c-2.74,12-4.39,19.19-11.43,35.49Z"/><path class="cls-1" d="M37.31,104a2.56,2.56,0,0,1,4.15-2.26l9.39,7.62a2.56,2.56,0,0,1-3.22,4l-9.39-7.62A2.52,2.52,0,0,1,37.31,104Z"/><path class="cls-1" d="M58.13,88.48a2.56,2.56,0,0,1,4.29-2.15L77.1,100.05a2.56,2.56,0,0,1-3.49,3.74L58.92,90.07A2.55,2.55,0,0,1,58.13,88.48Z"/><path class="cls-1" d="M64.16,64.74a2.53,2.53,0,0,1,.67-2,2.56,2.56,0,0,1,3.62-.13l12.4,11.54a2.56,2.56,0,0,1-3.48,3.75L65,66.33A2.49,2.49,0,0,1,64.16,64.74Z"/><path class="cls-1" d="M277.81,294.49a2.56,2.56,0,0,1-2.4-1.67C273,286.29,270,282,266.73,280.25a2.56,2.56,0,0,1,2.37-4.54c4.47,2.33,8.21,7.49,11.11,15.33a2.56,2.56,0,0,1-1.52,3.29A2.48,2.48,0,0,1,277.81,294.49Z"/><path class="cls-1" d="M282.46,305.75a2.55,2.55,0,0,1-1.93-4.24c.88-1,21.71-24.41,45.76-21.46a2.56,2.56,0,0,1-.63,5.08c-21.34-2.65-41.08,19.53-41.28,19.75A2.54,2.54,0,0,1,282.46,305.75Z"/><path class="cls-1" d="M281.87,305l-2.42-4.16,0,.49-5.11-.31c3.77-61.28,49.17-62.19,49.63-62.19h2.74l-.18,2.73C324.08,280,283.59,304,281.87,305Zm39.26-60.82c-9.36,1.2-38.4,8.78-41.66,56.29C282.28,298.74,317.14,277,321.13,244.15Z"/><path class="cls-1" d="M279.54,304.5a2.52,2.52,0,0,1-.93-.18,2.56,2.56,0,0,1-1.45-3.32c5.86-14.89,15.43-34.52,27.81-43.52a2.56,2.56,0,1,1,3,4.14c-12,8.71-21.47,29.59-26.06,41.25A2.55,2.55,0,0,1,279.54,304.5Z"/><path class="cls-1" d="M263.55,351.71a2.87,2.87,0,0,1-.58-.07,2.56,2.56,0,0,1-1.93-3h0a.08.08,0,0,1,0,0h0a.57.57,0,0,1,0-.14c0-.2.16-.61.28-1.19a13.35,13.35,0,0,0-4.73-13c-6.55-5.39-9.52-13.34-7.77-20.73,2.7-11.32,15.5-18,28.55-14.9s21.48,14.84,18.78,26.16h0c-1.94,8.17-9.27,14.23-18.66,15.44a13.31,13.31,0,0,0-10.79,7.6c-.28.66-.54,1.35-.77,2.06A2.57,2.57,0,0,1,263.55,351.71ZM271,303c-8.26,0-15.43,4.64-17.12,11.73-1.3,5.48,1,11.46,6,15.61a18.7,18.7,0,0,1,6.26,9.72,19.4,19.4,0,0,1,10.74-4.88c7.26-.94,12.89-5.47,14.34-11.56h0c2-8.57-4.69-17.54-15-20A22.44,22.44,0,0,0,271,303Z"/><path class="cls-1" d="M259.14,320.52a2.74,2.74,0,0,1-.84-.14,2.56,2.56,0,0,1-1.58-3.26c4-11.51,14.56-11.26,19.6-9.52a2.56,2.56,0,0,1-1.66,4.84c-1-.34-9.86-3-13.11,6.36A2.55,2.55,0,0,1,259.14,320.52Z"/><path class="cls-1" d="M238.8,118.37a25.13,25.13,0,0,1-5.16-11,25.48,25.48,0,0,1,12.05-26.78,25.49,25.49,0,0,0,10.06-10.36,9.46,9.46,0,0,0,.9-3.58A14.71,14.71,0,0,1,257,64a13.61,13.61,0,0,1,5.44-7.86,11.23,11.23,0,0,1,16.64,4.24,13.56,13.56,0,0,1,1,9.68,13.37,13.37,0,0,1-1,2.77l-.38,1.28c-.09.47-.17,1-.24,1.5A26.45,26.45,0,0,0,281.1,91a25.15,25.15,0,0,1,2.69,9.81h0a23,23,0,0,1,0,3.11,2.38,2.38,0,0,1,0,.46,25.35,25.35,0,0,1-27.43,23.32A25.2,25.2,0,0,1,238.8,118.37ZM274,61.26a6.29,6.29,0,0,0-3.31-2.18,6.63,6.63,0,0,0-5.46,1,8.76,8.76,0,0,0-3.49,5.09,10.55,10.55,0,0,0-.23,1.75,14.15,14.15,0,0,1-1.4,5.4,30.3,30.3,0,0,1-11.92,12.35A20.51,20.51,0,1,0,279,103.88l0-.26a17.78,17.78,0,0,0,0-2.53h0a20.22,20.22,0,0,0-2.17-7.93A31.14,31.14,0,0,1,273.62,75q.13-1,.3-1.92l.06-.22.66-2.08a8.5,8.5,0,0,0,.75-1.93,8.75,8.75,0,0,0-.59-6.27A7,7,0,0,0,274,61.26Z"/><path class="cls-1" d="M282.7,104.77l-.1,0a1.18,1.18,0,0,0,0-.26Z"/><polygon class="cls-1" points="281.76 105.81 282.01 104.69 281.75 100.94 283.49 105.1 281.76 105.81"/><path class="cls-1" d="M269.4,58.36a2.42,2.42,0,0,1-.48-2c.16-.76,4.21-18.67,18.59-22.26a2.41,2.41,0,0,1,1.17,4.68c-11.46,2.86-15,18.45-15.05,18.61a2.41,2.41,0,0,1-4.23,1Z"/><path class="cls-1" d="M264.82,50.85a12.2,12.2,0,0,1-1.35-13.64,3,3,0,0,1,4-1.32c6,2.75,9.13,7.73,8.79,14A2.42,2.42,0,0,1,274,52.17a2.41,2.41,0,0,1-3,3.66A21.1,21.1,0,0,1,264.82,50.85Zm2.23-9.69c-.63,2.31-.43,5.87,4.44,9.29a2.23,2.23,0,0,1-.09-.82A8.83,8.83,0,0,0,267.05,41.16Zm-1.63-.88h0Z"/><path class="cls-1" d="M260.77,118.29a2.52,2.52,0,0,1-.43-.79,2.42,2.42,0,0,1,1.58-3c.3-.1.59-.2.89-.32a11.4,11.4,0,0,0,6.52-13.76c-1.49-5.48-2.51-9.29-3.28-12.58a2.41,2.41,0,0,1,4.7-1.1c.76,3.21,1.76,7,3.24,12.41a16.23,16.23,0,0,1-9.4,19.52c-.4.16-.81.3-1.22.43A2.39,2.39,0,0,1,260.77,118.29Z"/><path class="cls-1" d="M212.65,309.54c-15.17,0-27.51-11.47-27.51-25.58s12.34-25.57,27.51-25.57,27.5,11.47,27.5,25.57S227.81,309.54,212.65,309.54Zm0-47.29c-13,0-23.65,9.74-23.65,21.71s10.61,21.72,23.65,21.72,23.64-9.74,23.64-21.72S225.68,262.25,212.65,262.25Z"/><path class="cls-1" d="M229.54,287.34l-.36,0a1.93,1.93,0,0,1-1.54-2.26c1-5.19.29-9.1-2.09-11.62-4.34-4.59-13-3.49-13.13-3.48a1.93,1.93,0,0,1-.52-3.82c.44-.06,10.72-1.39,16.44,4.64,3.29,3.46,4.33,8.51,3.09,15A1.92,1.92,0,0,1,229.54,287.34Z"/><path class="cls-1" d="M148.57,294.71a2.52,2.52,0,0,1-1.36-1,191.39,191.39,0,0,0-29.87-32.58,2.56,2.56,0,1,1,3.25-4,193.36,193.36,0,0,1,30.78,33.55,2.56,2.56,0,0,1-2.8,3.95Z"/><path class="cls-1" d="M159.52,314.51a5.15,5.15,0,0,1-.82-.32c-9.09-4.53-29.89-17.52-26.68-40.28a2.62,2.62,0,0,1,.52-1.23,2.52,2.52,0,0,1,.15-1.14A2.56,2.56,0,0,1,136,270c28.56,10.67,30.62,31.2,30.17,39.54a5.42,5.42,0,0,1-2.67,4.43A5.06,5.06,0,0,1,159.52,314.51Zm-22.59-38.58c-1.76,18.66,16.11,29.72,24,33.67,0,0,.07-.11.08-.29C161.41,302.37,159.71,285.62,136.93,275.93Z"/><path class="cls-1" d="M21.28,242.51a16.5,16.5,0,0,1-9.45-3.24c-6.43-4.57-8.7-12-5.16-17S18,217,24.43,221.56h0c6.43,4.57,8.69,12,5.16,17A9.89,9.89,0,0,1,21.28,242.51Zm-6.33-19a4.88,4.88,0,0,0-4.12,1.76c-1.8,2.55,0,7.07,4,9.88s8.83,3,10.63.5,0-7.06-4-9.88h0A11.6,11.6,0,0,0,15,223.46Z"/><path class="cls-1" d="M344,237.54a12.2,12.2,0,0,1-3.24-6.61c-1-5.72,1.75-10.79,6.17-11.54s8.65,3.15,9.62,8.88h0c1,5.73-1.74,10.8-6.17,11.55A7.31,7.31,0,0,1,344,237.54Zm6.63-13.21a3.63,3.63,0,0,0-3.07-1.23c-2.26.39-3.68,3.69-3.08,7.21s3,6.17,5.27,5.79,3.68-3.68,3.08-7.2h0A8.51,8.51,0,0,0,350.64,224.33Z"/><path class="cls-1" d="M251.48,248.9a16.56,16.56,0,0,1-9.45-3.23c-6.43-4.58-8.7-12-5.17-17s11.34-5.27,17.77-.7h0c6.42,4.57,8.69,12,5.16,17A9.86,9.86,0,0,1,251.48,248.9Zm-6.33-19.05a4.87,4.87,0,0,0-4.12,1.77c-1.81,2.54,0,7.07,4,9.88s8.82,3,10.63.5,0-7.07-4-9.88h0A11.62,11.62,0,0,0,245.15,229.85Z"/><ellipse class="cls-1" cx="155.03" cy="84.45" rx="7.31" ry="5.28" transform="translate(-19.84 108.7) rotate(-36.47)"/><path class="cls-1" d="M147.35,89c-1.56-3.08-.12-7.32,3.58-10.06,4-3,9-2.87,11.28.24S163.16,87,159.13,90s-9,2.87-11.28-.24A5.1,5.1,0,0,1,147.35,89ZM159.8,81.4a2.9,2.9,0,0,0-.2-.33c-1.18-1.59-4.26-1.39-6.74.45s-3.58,4.73-2.4,6.31,4.27,1.39,6.74-.44h0C159.52,85.68,160.63,83,159.8,81.4Z"/><path class="cls-1" d="M100.63,342.22l-.94-1.15c-.24-.29-5.88-7.3-3.72-14.18,1.32-4.24,5.16-7.3,11.39-9.08l1.39-.39,1,1c.86.79,8.35,8,6.27,14.94-1.32,4.41-6,7.32-14,8.65Zm6.71-19c-3.61,1.26-5.79,3-6.49,5.23-.89,2.81.7,6.24,2,8.23,4.78-1,7.73-2.67,8.35-4.77C112,329.11,109.21,325.25,107.34,323.18Z"/><path class="cls-1" d="M97.84,351a2.55,2.55,0,0,1-1.6-4.55c5.28-4.23,5.43-13.26,5.43-13.35a2.56,2.56,0,1,1,5.12,0c0,.47-.09,11.53-7.36,17.34A2.51,2.51,0,0,1,97.84,351Z"/><path class="cls-1" d="M135.25,130.41a2.56,2.56,0,0,1-1.84-.78,37.7,37.7,0,0,0-22.74-11,2.56,2.56,0,0,1,.26-5.11,42.25,42.25,0,0,1,26.16,12.56,2.55,2.55,0,0,1-1.84,4.33Z"/><path class="cls-1" d="M113.89,126.43a19.18,19.18,0,0,1-3-.24C100.26,124.44,93,114,92.68,113.56l-1.81-2.64,3-1.19c11.82-4.7,20.81-5.12,26.74-1.22A15,15,0,0,1,127,120l0,1.33-1.06.79A20,20,0,0,1,113.89,126.43ZM99,113.26c2.55,2.81,7.17,7,12.7,7.88a13.79,13.79,0,0,0,10-2.32,9.53,9.53,0,0,0-4-6.07C113.82,110.23,107.4,110.41,99,113.26Zm-4.24-1.15h0Z"/><path class="cls-1" d="M.11,200.46a2.55,2.55,0,0,1,.44-2,37.78,37.78,0,0,0,6.86-24.32,2.56,2.56,0,0,1,5.07-.64,42.22,42.22,0,0,1-7.78,28,2.56,2.56,0,0,1-3.57.57A2.52,2.52,0,0,1,.11,200.46Z"/><path class="cls-1" d="M.28,178.72a19.8,19.8,0,0,1-.28-3C-.14,165,8.86,156,9.25,155.58l2.28-2.24,1.69,2.72c6.7,10.81,8.68,19.59,5.88,26.11A15,15,0,0,1,9,190.52l-1.29.27-1-.9A20.07,20.07,0,0,1,.28,178.72Zm10.37-16.93c-2.32,3-5.62,8.28-5.53,13.89a13.72,13.72,0,0,0,4,9.43,9.53,9.53,0,0,0,5.27-5C16.22,175.82,14.92,169.53,10.65,161.79Zm.39-4.38h0Z"/><path class="cls-1" d="M337.91,145.26a2.56,2.56,0,0,1-5-.78A45.13,45.13,0,0,0,319.68,114a2.56,2.56,0,0,1,3.35-3.86,49.43,49.43,0,0,1,15,34.17A2.49,2.49,0,0,1,337.91,145.26Z"/><path class="cls-1" d="M333.16,125.36l-.15.41-.38,1-1,.43c-.39.16-9.68,3.94-17.14-1.16-5.84-4-8.66-12.11-8.35-24.1l.05-2.15,2.13-.32c.68-.1,16.81-2.39,23.81,6.25C335.84,110.38,336.2,117,333.16,125.36Zm-22-21c.1,8.78,2.21,14.81,6.14,17.51s9.13,1.65,11.27,1c2.1-6.2,1.94-10.86-.49-13.87C324.49,104.49,316,104,311.21,104.35Z"/><path class="cls-1" d="M64.69,312.07a35.49,35.49,0,1,1,35.49-35.49A35.53,35.53,0,0,1,64.69,312.07Zm0-65.86a30.37,30.37,0,1,0,30.38,30.37A30.41,30.41,0,0,0,64.69,246.21Z"/><path class="cls-1" d="M64.7,301a24.46,24.46,0,1,1,24.45-24.46A24.48,24.48,0,0,1,64.7,301Zm0-43.8A19.34,19.34,0,1,0,84,276.58,19.37,19.37,0,0,0,64.7,257.24Z"/><rect class="cls-1" x="62.14" y="254.68" width="5.12" height="43.8"/><rect class="cls-1" x="42.79" y="273.86" width="43.8" height="5.12"/><path class="cls-1" d="M49.75,295.15a2.57,2.57,0,0,1-1.85-4.33l30.31-31.61a2.56,2.56,0,1,1,3.7,3.54L51.6,294.36A2.59,2.59,0,0,1,49.75,295.15Z"/><path class="cls-1" d="M79,294.41a2.57,2.57,0,0,1-1.86-.8L47.89,262.74a2.56,2.56,0,1,1,3.72-3.52l29.21,30.87A2.56,2.56,0,0,1,79,294.41Z"/><path class="cls-1" d="M182,61.66c-1,0-2,0-2.92,0a9.55,9.55,0,0,1-9.31-9.08c-1-20,3.58-34.55,13.5-43.33,12.17-10.79,29-9.84,37.88-8.32h0a10.13,10.13,0,0,1,8.22,7.9c3.18,15.85.95,28.48-6.64,37.55C212.13,59.09,193.73,61.53,182,61.66ZM210,6c-7.35.08-15.95,1.77-22.67,7.72-8.48,7.51-12.34,20.48-11.47,38.53a3.5,3.5,0,0,0,3.4,3.34c10.25.22,29-1.22,38.91-13.12,6.35-7.59,8.15-18.52,5.35-32.49a4.08,4.08,0,0,0-3.32-3.15A58.47,58.47,0,0,0,210,6Z"/><path class="cls-1" d="M216.7,35.18a3.05,3.05,0,0,1-1.34-.31,3,3,0,0,1-1.4-4,15,15,0,0,0-.05-13.7A3,3,0,0,1,219.06,14a21.06,21.06,0,0,1,.33,19.48A3,3,0,0,1,216.7,35.18Z"/><path class="cls-1" d="M181.09,61.66a3,3,0,0,1-1.94-.67l-7.88-6.4a3,3,0,0,1,3.8-4.68l7.89,6.4a3,3,0,0,1-1.87,5.35Z"/><path class="cls-1" d="M184.93,371.08A17.05,17.05,0,0,1,170,362.47l-7.72-13.38a12.22,12.22,0,0,1,10.57-18.32H197a12.22,12.22,0,0,1,10.57,18.32l-7.72,13.38A17.05,17.05,0,0,1,184.93,371.08Zm-12.07-35.19a7.1,7.1,0,0,0-6.14,10.65l7.72,13.37a12.12,12.12,0,0,0,21,0l7.72-13.37A7.1,7.1,0,0,0,197,335.89Z"/><circle class="cls-1" cx="196.44" cy="342.28" r="2.56"/><circle class="cls-1" cx="177.26" cy="342.28" r="3.84"/><circle class="cls-1" cx="184.3" cy="356.99" r="5.75"/><path class="cls-1" d="M356.7,178.87a7.68,7.68,0,1,0,7.67,7.68A7.68,7.68,0,0,0,356.7,178.87Zm1.69,11.77a4.37,4.37,0,1,1,4.36-4.36A4.37,4.37,0,0,1,358.39,190.64Z"/><path class="cls-1" d="M188.5,100a11.38,11.38,0,1,0,15.18,5.37A11.4,11.4,0,0,0,188.5,100Zm9.79,14.67a6.47,6.47,0,1,1,3.05-8.63A6.47,6.47,0,0,1,198.29,114.65Z"/><circle class="cls-1" cx="195.77" cy="108.69" r="3.45"/><path class="cls-2" d="M82.63,140.92H84q10.29.89,17.34,5.56,7.25,5.24,9.15,11.82a6.86,6.86,0,0,0,.22,1.63q0,7.86-10.31,15.08a9.53,9.53,0,0,1-4,1.38h-.94q-2.06,0-8.68-2.07a10.89,10.89,0,0,0-1.87-.25q-4.7,0-9.4,5.11c-3,3.51-4.44,7-4.44,10.44q0,6.33,7.51,8.78a21.57,21.57,0,0,0,5.39.72q2.31,0,10.77-3.48c1.12-.17,1.75-.25,1.88-.25q4.31,0,9.61,6.27.93,1.71.8,6.3-.1,7.75-6,14.8a26.13,26.13,0,0,1-19.44,9,38.51,38.51,0,0,1-25.08-9q-7.35-5.88-10.3-11.82-2.16-3-4-9.75a47.66,47.66,0,0,1-1.63-10.91v-6.46q1.11-11,8.2-23.42,2.22-4,8.21-10,9.53-7.23,17.57-8.34A23.41,23.41,0,0,1,82.63,140.92Z"/><path class="cls-2" d="M154.75,141a57.31,57.31,0,0,1,17.09,3.54,27.27,27.27,0,0,1,12.65,15.13,118.49,118.49,0,0,1,2,24.06q-.19,15.69-3,24.09-4.07,12-13.75,18a41.46,41.46,0,0,1-18.7,4.62q-26.82,0-34.25-15.17a13.79,13.79,0,0,1-2.27-7.26v-1.08q0-8.07,11.71-18.26,9.39-7.26,19-7.26,7.68,0,7.68-2.6.44,0,1.1-5.71c-.14-1.62-.9-2.43-2.26-2.43q-1.38,0-7.87,5.71-7.84,4.59-12.87,4.59-9.09,0-12.82-6.13a11.66,11.66,0,0,1-1.6-5.91q0-8.88,12.18-19.59Q140.53,141,149.33,141ZM148,203.43a5.33,5.33,0,0,0-3,.84,2.27,2.27,0,0,0,0,4.06,5.87,5.87,0,0,0,6.05,0,2.27,2.27,0,0,0,0-4.06A5.34,5.34,0,0,0,148,203.43Z"/><path class="cls-2" d="M235.76,139.85q13.17,0,19.11,11.6,2.24,7.89,2.32,11.6.22,11.19-9.61,14.94a11.14,11.14,0,0,1-4.61,1.13q-5,0-14.81-4a2.55,2.55,0,0,0-1.19-.22c-1.84.2-2.75.87-2.73,2s.26,5.26.72,12.48q.73,15.58-3.87,27.21a30.3,30.3,0,0,1-7.15,10.27c-2.77,2.21-5.12,3.47-7.08,3.79q-7.37,0-11.82-14.51a140.58,140.58,0,0,1-4-31.24l-.14-5.77A99.66,99.66,0,0,1,195.13,149q3.84-7.35,7.48-7.35h.69q4.72,0,9.09,4.45a3.37,3.37,0,0,0,2.07.66c.39,0,2.74-1.11,7.07-3.34A33.73,33.73,0,0,1,235.76,139.85Z"/><path class="cls-2" d="M303,142.33h.66q11.42,0,21.93,8.67a30.36,30.36,0,0,1,7.51,15.06v1.16q0,11.73-4.19,16.79-5.5,7.91-18.18,13.51c-.53,0-1.14.46-1.82,1.38v.44a1.47,1.47,0,0,0,1.38.94q5.29-1.44,15.05-6.63a17.58,17.58,0,0,1,4.12-.66h.44q5.13,0,6.82,5.25,1.71,7.32-3.23,15.13-5.68,7.38-17,12-12.35,4.53-18.92,4.53h-1.16q-15.58,0-26.46-16.44A38.71,38.71,0,0,1,263,196.39c-.76-5.22-1.13-8.4-1.13-9.56q0-20.84,11.18-31.93,11.82-10.17,23.26-11.66A28.69,28.69,0,0,1,303,142.33ZM295.18,171a3,3,0,0,0-.67,2.72,3,3,0,0,0,1.9,2,5.28,5.28,0,0,0,3.37.16,5.14,5.14,0,0,0,2.86-1.78,2.89,2.89,0,0,0-1.23-4.72,5.61,5.61,0,0,0-6.23,1.6Z"/></g></g></svg>